<svg width="61" height="57" viewBox="0 0 61 57" fill="none" xmlns="http://www.w3.org/2000/svg">
<path d="M23.6282 39.6316H54.5265L61 11.5351H31.1598V14H57.8255L52.4227 37.1667H25.4831L10.5567 0H0V2.60184H8.71428L23.6282 39.6316Z" fill="black"/>
<path d="M29.7033 56.5001C33.4007 56.5001 36.4382 53.5123 36.4382 49.7527C36.4382 45.9931 33.4007 43.0054 29.7033 43.0054C26.006 43.0054 22.9684 45.9931 22.9684 49.7527C22.9684 53.5123 26.006 56.5001 29.7033 56.5001ZM29.7033 45.5948C32.0811 45.5948 33.9235 47.5368 33.9235 49.7527C33.9235 52.0931 32.0811 53.9107 29.7033 53.9107C27.3256 53.9107 25.4831 51.9686 25.4831 49.7527C25.4831 47.4123 27.4625 45.5948 29.7033 45.5948Z" fill="black"/>
<path d="M48.8498 56.5001C52.5472 56.5001 55.5847 53.5123 55.5847 49.7527C55.5847 45.9931 52.5472 43.0054 48.8498 43.0054C45.1525 43.0054 42.1149 45.9931 42.1149 49.7527C42.1149 53.5123 45.1525 56.5001 48.8498 56.5001ZM48.8498 45.5948C51.2276 45.5948 53.07 47.5368 53.07 49.7527C53.07 52.0931 51.2276 53.9107 48.8498 53.9107C46.4721 53.9107 44.6296 51.9686 44.6296 49.7527C44.7541 47.4123 46.609 45.5948 48.8498 45.5948Z" fill="black"/>
</svg>
