<svg width="66" height="57" viewBox="0 0 66 57" fill="none" xmlns="http://www.w3.org/2000/svg">
<path fill-rule="evenodd" clip-rule="evenodd" d="M66 5.42857C66 2.43471 63.5332 0 60.5 0H8.25C5.21675 0 2.75 2.43471 2.75 5.42857V10.8571H8.25V5.42857H60.5L60.4945 29.8572H27.5V35.2857H60.4917V40.7143H27.5V46.1402L33 46.1429V51.5714H30.25C28.8398 51.5714 27.6774 52.6102 27.5184 53.9671L27.5 54.2857C27.5 55.7848 28.7402 57 30.2247 57H41.2753C42.6726 57 43.8243 55.961 43.9816 54.6041L44 54.2857C44 52.7866 42.7793 51.5714 41.25 51.5714H38.5V46.1429H60.5C63.5332 46.1429 66 43.7082 66 40.7143V5.42857ZM5.5 13.5714C2.46243 13.5714 0 16.0019 0 19V51.5714C0 54.5694 2.46243 57 5.5 57H19.25C22.2876 57 24.75 54.5694 24.75 51.5714V19C24.75 16.0019 22.2876 13.5714 19.25 13.5714H5.5ZM5.5 19H19.25V51.5714H5.5V19ZM8.25 27.1429C8.25 25.6438 9.48123 24.4285 11 24.4285H13.75C15.2688 24.4285 16.5 25.6438 16.5 27.1429C16.5 28.642 15.2688 29.8572 13.75 29.8572H11C9.48123 29.8572 8.25 28.642 8.25 27.1429ZM11 32.5715C9.48123 32.5715 8.25 33.7866 8.25 35.2857C8.25 36.7848 9.48123 38 11 38H13.75C15.2688 38 16.5 36.7848 16.5 35.2857C16.5 33.7866 15.2688 32.5715 13.75 32.5715H11Z" fill="url(#paint0_linear_6_105)"/>
<defs>
<linearGradient id="paint0_linear_6_105" x1="84.9159" y1="57" x2="84.9159" y2="0" gradientUnits="userSpaceOnUse">
<stop stop-color="#FC8507"/>
<stop offset="1" stop-color="#FFA218"/>
</linearGradient>
</defs>
</svg>
