<svg width="19" height="18" viewBox="0 0 19 18" fill="none" xmlns="http://www.w3.org/2000/svg">
<path d="M12.7887 10.8338C12.7887 12.6502 11.3162 14.1226 9.4998 14.1226C7.68341 14.1226 6.21094 12.6502 6.21094 10.8338C6.21094 9.0174 7.68341 7.54492 9.4998 7.54492C11.3162 7.54492 12.7887 9.0174 12.7887 10.8338Z" fill="#7E869E" fill-opacity="0.25" stroke="white" stroke-width="1.2"/>
<path d="M17.4364 9.768C17.8253 10.2383 18.0197 10.4734 18.0197 10.8333C18.0197 11.1932 17.8252 11.4283 17.4364 11.8986C16.0446 13.5816 13.0142 16.6666 9.49997 16.6666C5.98567 16.6666 2.95527 13.5816 1.56353 11.8986C1.17466 11.4283 0.980225 11.1932 0.980225 10.8333C0.980225 10.4734 1.17466 10.2383 1.56353 9.768C2.95527 8.085 5.98567 5 9.49997 5C13.0142 5 16.0446 8.085 17.4364 9.768Z" stroke="white" stroke-width="1.2"/>
</svg>
