<svg width="53" height="53" viewBox="0 0 53 53" fill="none" xmlns="http://www.w3.org/2000/svg">
<path fill-rule="evenodd" clip-rule="evenodd" d="M9.63938 4.81969C6.97613 4.81969 4.81637 6.97281 4.81637 9.63606V14.4557C4.81637 17.119 6.97612 19.2754 9.63606 19.2754H14.4557C17.1157 19.2754 19.2721 17.119 19.2721 14.4557V9.63938C19.2721 6.97944 17.119 4.823 14.4557 4.823H9.63606L9.63938 4.81969ZM0 9.63606C0.000878332 7.08012 1.01684 4.62915 2.82448 2.82214C4.63212 1.01512 7.08343 -1.50916e-07 9.63938 0L14.4557 0C17.0117 0.000878332 19.4627 1.01684 21.2697 2.82448C23.0767 4.63212 24.0918 7.08343 24.0918 9.63938V14.4557C24.0918 15.7216 23.8425 16.9751 23.3581 18.1446C22.8736 19.3141 22.1636 20.3767 21.2685 21.2718C20.3734 22.1669 19.3108 22.8769 18.1413 23.3614C16.9718 23.8458 15.7183 24.0951 14.4524 24.0951H9.63938C7.08285 24.0951 4.63104 23.0796 2.82331 21.2718C1.01557 19.4641 0 17.0123 0 14.4557L0 9.63938V9.63606ZM38.5443 4.81969C35.8843 4.81969 33.7279 6.97281 33.7279 9.63606V14.4557C33.7279 17.119 35.881 19.2754 38.5443 19.2754H43.3639C46.0239 19.2754 48.1836 17.119 48.1836 14.4557V9.63938C48.1836 6.97944 46.0239 4.823 43.3639 4.823H38.5443V4.81969ZM28.9082 9.63606C28.9091 7.08012 29.925 4.62915 31.7327 2.82214C33.5403 1.01512 35.9916 -1.50916e-07 38.5476 0L43.3639 0C45.9199 0.000878332 48.3708 1.01684 50.1779 2.82448C51.9849 4.63212 53 7.08343 53 9.63938V14.4557C53 17.0123 51.9844 19.4641 50.1767 21.2718C48.369 23.0796 45.9171 24.0951 43.3606 24.0951H38.5443C35.9883 24.0942 33.5373 23.0783 31.7303 21.2706C29.9233 19.463 28.9082 17.0117 28.9082 14.4557V9.63938V9.63606ZM9.63938 33.7246C6.97944 33.7246 4.81969 35.881 4.81969 38.5443V43.3639C4.81969 46.0239 6.97944 48.1836 9.63938 48.1836H14.4591C17.119 48.1836 19.2754 46.0239 19.2754 43.3639V38.5443C19.2754 35.881 17.1223 33.7246 14.4591 33.7246H9.63606H9.63938ZM0 38.5443C0 35.9877 1.01557 33.5359 2.82331 31.7282C4.63104 29.9205 7.08285 28.9049 9.63938 28.9049H14.4557C17.0117 28.9058 19.4627 29.9217 21.2697 31.7294C23.0767 33.537 24.0918 35.9883 24.0918 38.5443V43.3639C24.0909 45.9199 23.075 48.3708 21.2673 50.1779C19.4597 51.9849 17.0084 53 14.4524 53H9.63938C7.08285 53 4.63104 51.9844 2.82331 50.1767C1.01557 48.369 0 45.9171 0 43.3606L0 38.5443ZM38.5443 33.7246C35.8843 33.7246 33.7279 35.881 33.7279 38.5443V43.3639C33.7279 46.0239 35.881 48.1836 38.5443 48.1836H43.3639C46.0239 48.1836 48.1836 46.0239 48.1836 43.3639V38.5443C48.1836 35.881 46.0239 33.7246 43.3639 33.7246H38.5443ZM28.9082 38.5443C28.9082 35.9877 29.9238 33.5359 31.7315 31.7282C33.5392 29.9205 35.991 28.9049 38.5476 28.9049H43.3639C45.9199 28.9058 48.3708 29.9217 50.1779 31.7294C51.9849 33.537 53 35.9883 53 38.5443V43.3639C52.9991 45.9199 51.9832 48.3708 50.1755 50.1779C48.3679 51.9849 45.9166 53 43.3606 53H38.5443C35.9883 52.9991 33.5373 51.9832 31.7303 50.1755C29.9233 48.3679 28.9082 45.9166 28.9082 43.3606V38.5443Z" fill="#333333"/>
</svg>
