<svg width="55" height="53" viewBox="0 0 55 53" fill="none" xmlns="http://www.w3.org/2000/svg">
<path d="M13.437 52.604L27.5012 43.3326V0C26.5021 0 25.6269 0.570042 25.2511 1.45102L18.1297 17.1531L2.31039 18.2885C1.3068 18.4157 0.431512 19.0469 0.119892 20.0551C-0.191727 21.0633 0.119892 22.1374 0.871445 22.7687L14.1199 34.0565L9.68386 49.8245C9.56357 50.3216 9.58853 50.8442 9.75562 51.3269C9.92272 51.8095 10.2245 52.2308 10.6233 52.5381C11.036 52.8274 11.5213 52.9876 12.0207 52.9993C12.52 53.011 13.012 52.8737 13.437 52.604Z" fill="url(#paint0_linear_8_143)"/>
<path d="M27.5012 43.3326L41.5653 52.604V52.6087C41.9832 52.857 42.4575 52.9871 42.9401 52.9856C43.4802 52.9838 44.006 52.8074 44.4432 52.4815C44.864 52.1943 45.183 51.7747 45.3523 51.2855C45.5217 50.7963 45.5323 50.2639 45.3827 49.768L40.9467 33.9999L54.1401 22.7734C54.5067 22.4439 54.7724 22.0122 54.905 21.5305C55.0376 21.0488 55.0314 20.5379 54.8871 20.0598C54.5709 19.0469 53.6956 18.3591 52.6966 18.2932L36.8773 17.1578L29.7513 1.45102C29.3801 0.570042 28.5002 0 27.5012 0V43.3326Z" fill="#D9D9D9"/>
<defs>
<linearGradient id="paint0_linear_8_143" x1="35.3867" y1="52.9998" x2="35.3867" y2="-0.00471054" gradientUnits="userSpaceOnUse">
<stop stop-color="#FC8507"/>
<stop offset="1" stop-color="#FFA218"/>
</linearGradient>
</defs>
</svg>
