<svg width="53" height="53" viewBox="0 0 53 53" fill="none" xmlns="http://www.w3.org/2000/svg">
<path d="M52.332 49.2224L37.1255 33.9926C40.1234 30.3944 41.9264 25.7961 41.9264 20.7739C41.9264 9.31617 32.531 0 20.9741 0C9.41715 0 0 9.32704 0 20.7847C0 32.2424 9.39543 41.5586 20.9524 41.5586C25.8619 41.5586 30.3804 39.8737 33.9648 37.0581L49.2255 52.3315C50.1162 53.2228 51.4413 53.2228 52.332 52.3315C53.2227 51.4401 53.2227 50.1138 52.332 49.2224ZM4.45333 20.7847C4.45333 11.7838 11.8611 4.46785 20.9524 4.46785C30.0437 4.46785 37.4514 11.7838 37.4514 20.7847C37.4514 29.7857 30.0437 37.1016 20.9524 37.1016C11.8611 37.1016 4.45333 29.7748 4.45333 20.7847Z" fill="black"/>
</svg>
