<svg width="36" height="57" viewBox="0 0 36 57" fill="none" xmlns="http://www.w3.org/2000/svg">
<g clip-path="url(#clip0_6_90)">
<path opacity="0.01" d="M47.9999 0H-9.6001V57H47.9999V0Z" fill="#181818"/>
<path fill-rule="evenodd" clip-rule="evenodd" d="M7.20662 0C3.22414 0 0 3.17549 0 7.10398V49.8959C0 53.8258 3.2297 57 7.20888 57H28.8058H28.8074C32.79 56.9991 36 53.8016 36 49.8574V7.13291C36 3.19205 32.7742 0 28.7933 0H7.20662ZM28.8058 52.3716C28.8058 52.3044 28.861 52.2502 28.9286 52.2469C30.1966 52.1835 31.2 51.1442 31.2 49.8574V7.13291C31.2 5.81542 30.1234 4.75 28.7933 4.75H7.20662C5.87004 4.75 4.8 5.80388 4.8 7.104V49.8959C4.8 51.1953 5.8733 52.25 7.20888 52.25H28.8038C28.8048 52.25 28.8053 52.25 28.8058 52.3716ZM13.2 41.5625C13.2 44.1859 15.349 46.3125 18 46.3125C20.651 46.3125 22.8 44.1859 22.8 41.5625C22.8 38.9391 20.651 36.8125 18 36.8125C15.349 36.8125 13.2 38.9391 13.2 41.5625ZM20.4 41.5625C20.4 42.8742 19.3255 43.9375 18 43.9375C16.6745 43.9375 15.6 42.8742 15.6 41.5625C15.6 40.2508 16.6745 39.1875 18 39.1875C19.3255 39.1875 20.4 40.2508 20.4 41.5625ZM11.932 10.1477C11.932 10.8035 12.4693 11.3352 13.132 11.3352H22.7316C23.3942 11.3352 23.9316 10.8035 23.9316 10.1477C23.9316 9.49183 23.3942 8.96019 22.7316 8.96019H13.132C12.4693 8.96019 11.932 9.49183 11.932 10.1477Z" fill="url(#paint0_linear_6_90)"/>
</g>
<defs>
<linearGradient id="paint0_linear_6_90" x1="27.3706" y1="11.3352" x2="27.3706" y2="8.96019" gradientUnits="userSpaceOnUse">
<stop stop-color="#FC8507"/>
<stop offset="1" stop-color="#FFA218"/>
</linearGradient>
<clipPath id="clip0_6_90">
<rect width="36" height="57" fill="white"/>
</clipPath>
</defs>
</svg>
