<svg width="55" height="53" viewBox="0 0 55 53" fill="none" xmlns="http://www.w3.org/2000/svg">
<path d="M41.5653 52.604L27.5012 43.3326L13.437 52.604C13.012 52.8737 12.52 53.011 12.0207 52.9993C11.5213 52.9876 11.036 52.8274 10.6233 52.5381C10.2245 52.2308 9.92272 51.8095 9.75562 51.3269C9.58853 50.8442 9.56357 50.3217 9.68386 49.8245L14.1199 34.0565L0.871445 22.7687C0.119892 22.1374 -0.191727 21.0633 0.119892 20.0551C0.431512 19.0469 1.3068 18.4157 2.31039 18.2885L18.1297 17.1531L25.2511 1.45102C25.6269 0.570042 26.5021 0 27.5012 0C28.5002 0 29.38 0.570042 29.7512 1.45102L36.8772 17.1578L52.6965 18.2932C53.6955 18.3591 54.5708 19.0469 54.887 20.0598C55.0313 20.5379 55.0375 21.0488 54.9049 21.5305C54.7724 22.0122 54.5066 22.4439 54.14 22.7734L40.9466 33.9999L45.3826 49.768C45.5323 50.2639 45.5216 50.7963 45.3523 51.2855C45.1829 51.7747 44.864 52.1943 44.4432 52.4815C44.0059 52.8074 43.4801 52.9838 42.9401 52.9856C42.4575 52.9871 41.9831 52.857 41.5653 52.6087V52.604Z" fill="url(#paint0_linear_3_17)"/>
<defs>
<linearGradient id="paint0_linear_3_17" x1="70.7704" y1="52.9998" x2="70.7704" y2="-0.00471054" gradientUnits="userSpaceOnUse">
<stop stop-color="#FC8507"/>
<stop offset="1" stop-color="#FFA218"/>
</linearGradient>
</defs>
</svg>
