<svg width="57" height="57" viewBox="0 0 57 57" fill="none" xmlns="http://www.w3.org/2000/svg">
<path fill-rule="evenodd" clip-rule="evenodd" d="M33.0498 14.0496C31.8036 6.08161 24.9244 0 16.625 0C7.44327 0 0 7.44327 0 16.625C0 25.8067 7.44327 33.25 16.625 33.25C20.4111 33.25 23.9015 31.9844 26.6964 29.8533L26.3416 29.0726L26.225 28.8259C25.4429 27.1778 23.8262 23.9025 21.375 19L26.5577 16.9082L27.1234 16.6767C30.9937 15.09 32.969 14.2143 33.0498 14.0496ZM54.6238 26.1233L54.6245 42.75C54.6245 45.3732 52.4979 47.5 49.8745 47.5L37.9995 47.4976V52.25H42.7495C44.0612 52.25 45.1245 53.3133 45.1245 54.625C45.1245 55.9367 44.0612 57 42.7495 57H16.6246C15.313 57 14.2496 55.9367 14.2496 54.625C14.2496 53.3133 15.313 52.25 16.6246 52.25H21.3746V47.4976L9.49962 47.5C6.87627 47.5 4.74962 45.3732 4.74962 42.75L4.74653 31.4552C6.3066 32.7064 8.0683 33.7164 9.97517 34.429L9.97462 42.275H49.3995L49.3988 26.1233H54.6238ZM33.25 47.4976H26.125V52.25H33.25V47.4976ZM16.6245 4.27512C9.80381 4.27512 4.27453 9.8044 4.27453 16.6251C4.27453 23.4458 9.80381 28.975 16.6245 28.975C18.1958 28.975 19.7189 28.6826 21.1344 28.1274L21.0137 27.8818L20.889 27.6281L15.4731 16.7564L20.6552 14.6831L25.7804 12.6069L27.9573 11.703C26.0452 7.30206 21.6534 4.27512 16.6245 4.27512ZM38 21.375C38 20.0633 36.9367 19 35.625 19C34.3133 19 33.25 20.0633 33.25 21.375C33.25 22.6867 34.3133 23.75 35.625 23.75C36.9367 23.75 38 22.6867 38 21.375ZM45.125 19C46.4367 19 47.5 20.0633 47.5 21.375C47.5 22.6867 46.4367 23.75 45.125 23.75C43.8133 23.75 42.75 22.6867 42.75 21.375C42.75 20.0633 43.8133 19 45.125 19ZM57 21.375C57 20.0633 55.9367 19 54.625 19C53.3133 19 52.25 20.0633 52.25 21.375C52.25 22.6867 53.3133 23.75 54.625 23.75C55.9367 23.75 57 22.6867 57 21.375ZM36.6178 9.49594L49.8755 9.49998C52.4987 9.49998 54.6255 11.6266 54.6255 14.25L54.6248 16.6233H49.3998L49.4005 14.725L37.9067 14.725C37.7247 12.893 37.2825 11.1374 36.6178 9.49594ZM19.475 10.6875C19.475 8.71998 17.7737 7.125 15.675 7.125C13.5763 7.125 11.875 8.71998 11.875 10.6875C11.875 12.655 13.5763 14.25 15.675 14.25C17.7737 14.25 19.475 12.655 19.475 10.6875Z" fill="url(#paint0_linear_6_107)"/>
<defs>
<linearGradient id="paint0_linear_6_107" x1="73.3364" y1="57" x2="73.3364" y2="0" gradientUnits="userSpaceOnUse">
<stop stop-color="#FC8507"/>
<stop offset="1" stop-color="#FFA218"/>
</linearGradient>
</defs>
</svg>
