<svg width="55" height="53" viewBox="0 0 55 53" fill="none" xmlns="http://www.w3.org/2000/svg">
<path d="M42.9353 50.4848C42.933 50.4856 42.9319 50.4856 42.9315 50.4856C42.916 50.4856 42.8992 50.4832 42.8817 50.4775L28.8771 41.2453L27.5012 40.3383L26.1252 41.2453L12.1115 50.4835C12.1085 50.4664 12.1081 50.4484 12.1104 50.4307L16.5264 34.7335L16.9601 33.192L15.7412 32.1535L2.50316 20.8746C2.49958 20.8598 2.49759 20.8355 2.50532 20.8044C2.51848 20.7967 2.54486 20.7841 2.58674 20.775L18.3086 19.6467L19.7921 19.5402L20.4064 18.1857L27.5012 2.54249L34.6006 18.1907L35.215 19.5449L36.6983 19.6514L52.4928 20.785C52.494 20.7873 52.4952 20.7901 52.4965 20.7933C52.5017 20.8172 52.5011 20.8432 52.4946 20.867C52.4891 20.8871 52.4808 20.9004 52.4745 20.908L39.3265 32.096L38.1061 33.1344L38.54 34.677L42.976 50.445L42.9788 50.4549L42.9492 50.4771C42.9426 50.482 42.9377 50.484 42.9353 50.4848ZM2.50655 20.8851C2.50654 20.8851 2.5064 20.8848 2.50617 20.8843L2.50655 20.8851Z" stroke="black" stroke-opacity="0.3" stroke-width="5"/>
</svg>
