<svg width="53" height="53" viewBox="0 0 53 53" fill="none" xmlns="http://www.w3.org/2000/svg">
<path fill-rule="evenodd" clip-rule="evenodd" d="M9.6939 4.81969C7.01559 4.81969 4.84362 6.97281 4.84362 9.63606V14.4557C4.84362 17.119 7.01559 19.2754 9.69057 19.2754H43.3061C45.9811 19.2754 48.153 17.119 48.153 14.4557V9.63938C48.153 6.97944 45.9811 4.823 43.3061 4.823H9.6939V4.81969ZM0 9.63606C0.000883301 7.08012 1.02259 4.62915 2.84046 2.82214C4.65832 1.01512 7.1235 -1.50916e-07 9.6939 0L43.3061 0C45.8771 0 48.3428 1.01557 50.1607 2.82331C51.9787 4.63104 53 7.08285 53 9.63938V14.4557C53 17.0123 51.9787 19.4641 50.1607 21.2718C48.3428 23.0796 45.8771 24.0951 43.3061 24.0951H9.6939C7.12292 24.0951 4.65724 23.0796 2.83928 21.2718C1.02132 19.4641 0 17.0123 0 14.4557L0 9.63938V9.63606ZM9.6939 33.7246C7.01559 33.7246 4.84362 35.881 4.84362 38.5443V43.3639C4.84362 46.0239 7.01559 48.1836 9.69057 48.1836H43.3061C45.9811 48.1836 48.153 46.0239 48.153 43.3639V38.5443C48.153 35.881 45.9811 33.7246 43.3061 33.7246H9.6939ZM0 38.5443C0 35.9877 1.02132 33.5359 2.83928 31.7282C4.65724 29.9205 7.12292 28.9049 9.6939 28.9049H43.3061C45.8771 28.9049 48.3428 29.9205 50.1607 31.7282C51.9787 33.5359 53 35.9877 53 38.5443V43.3639C52.9991 45.9199 51.9774 48.3708 50.1595 50.1779C48.3417 51.9849 45.8765 53 43.3061 53H9.6939C7.12292 53 4.65724 51.9844 2.83928 50.1767C1.02132 48.369 0 45.9171 0 43.3606L0 38.5443Z" fill="#333333"/>
</svg>
