<svg width="61" height="61" viewBox="0 0 61 61" fill="none" xmlns="http://www.w3.org/2000/svg">
<path fill-rule="evenodd" clip-rule="evenodd" d="M30.5 4.69231C16.2468 4.69231 4.69231 16.2468 4.69231 30.5C4.69231 36.7634 6.92355 42.5057 10.6345 46.9753C15.1626 42.3445 21.2466 38.5264 30.5 38.5264C39.7491 38.5264 45.8334 42.3142 50.3681 46.9719C54.0775 42.5029 56.3078 36.7618 56.3078 30.5C56.3078 16.2468 44.7533 4.69231 30.5 4.69231ZM47.0571 50.2971C43.167 46.2791 38.2045 43.2186 30.5 43.2186C22.8043 43.2186 17.8398 46.2982 13.9459 50.2998C18.4268 54.05 24.1998 56.3078 30.5 56.3078C36.8017 56.3078 42.5758 54.0491 47.0571 50.2971ZM0 30.5C0 13.6553 13.6553 0 30.5 0C47.3446 0 61 13.6553 61 30.5C61 47.3446 47.3446 61 30.5 61C13.6553 61 0 47.3446 0 30.5ZM30.5 16.5464C26.0672 16.5464 22.4737 20.1399 22.4737 24.5727C22.4737 29.0055 26.0672 32.599 30.5 32.599C34.9328 32.599 38.5264 29.0055 38.5264 24.5727C38.5264 20.1399 34.9328 16.5464 30.5 16.5464ZM17.7814 24.5727C17.7814 17.5484 23.4757 11.8541 30.5 11.8541C37.5244 11.8541 43.2186 17.5484 43.2186 24.5727C43.2186 31.5971 37.5244 37.2912 30.5 37.2912C23.4757 37.2912 17.7814 31.5971 17.7814 24.5727Z" fill="#AFAFAF"/>
</svg>
