<svg width="48" height="57" viewBox="0 0 48 57" fill="none" xmlns="http://www.w3.org/2000/svg">
<path fill-rule="evenodd" clip-rule="evenodd" d="M4.8 0C2.14903 0 0 2.12665 0 4.75V52.25C0 54.8734 2.14903 57 4.8 57H43.2C45.851 57 48 54.8734 48 52.25V4.75C48 2.12665 45.851 0 43.2 0H4.8ZM14.4 11.875C15.7256 11.875 16.8 10.8118 16.8 9.5C16.8 8.18819 15.7256 7.125 14.4 7.125C13.0747 7.125 12 8.18819 12 9.5C12 10.8118 13.0747 11.875 14.4 11.875ZM21.6 9.5C21.6 8.18819 22.6745 7.125 24 7.125C25.3255 7.125 26.4 8.18819 26.4 9.5C26.4 10.8118 25.3255 11.875 24 11.875C22.6745 11.875 21.6 10.8118 21.6 9.5ZM33.6 7.125C32.2745 7.125 31.2 8.18819 31.2 9.5C31.2 10.8118 32.2745 11.875 33.6 11.875C34.9253 11.875 36 10.8118 36 9.5C36 8.18819 34.9253 7.125 33.6 7.125ZM4.8 14.25H43.2V7.125C43.2 5.81333 42.1255 4.75 40.8 4.75H7.2C5.87453 4.75 4.8 5.81333 4.8 7.125V14.25ZM43.2 49.875C43.2 51.1867 42.1255 52.25 40.8 52.25H7.2C5.87453 52.25 4.8 51.1867 4.8 49.875V19H43.2V49.875ZM36 35.625C36 42.1729 30.6163 47.5 24 47.5C17.3831 47.5 12 42.1729 12 35.625C12 29.0771 17.3831 23.75 24 23.75C30.6163 23.75 36 29.0771 36 35.625ZM24 28.5C27.9698 28.5 31.2 31.6965 31.2 35.625C31.2 39.5535 27.9698 42.75 24 42.75C20.0297 42.75 16.8 39.5535 16.8 35.625C16.8 31.6965 20.0297 28.5 24 28.5Z" fill="url(#paint0_linear_7_112)"/>
<defs>
<linearGradient id="paint0_linear_7_112" x1="61.757" y1="57" x2="61.757" y2="0" gradientUnits="userSpaceOnUse">
<stop stop-color="#FC8507"/>
<stop offset="1" stop-color="#FFA218"/>
</linearGradient>
</defs>
</svg>
